<svg width="281" height="163" viewBox="0 0 281 163" fill="none" xmlns="http://www.w3.org/2000/svg">
<g filter="url(#filter0_i_105_453)">
<ellipse cx="142.5" cy="85" rx="82.5" ry="78" fill="url(#paint0_linear_105_453)"/>
</g>
<g filter="url(#filter1_bi_105_453)">
<path fillRule="evenodd" clipRule="evenodd" d="M137.093 161.571L44.533 162.585L44.5301 162.091C42.5732 162.394 40.5654 162.562 38.5189 162.585C17.5842 162.814 0.52215 147.678 0.40983 128.778C0.29751 109.878 17.1774 94.3704 38.1122 94.141C40.5408 94.1144 42.9173 94.2946 45.2213 94.6635C50.0879 77.3512 70.732 64.1798 95.5395 63.9081C120.317 63.6367 141.095 76.3232 146.198 93.4951C167.377 95.7242 183.695 109.758 183.797 126.921C183.897 143.766 168.344 157.939 147.773 161.005L147.776 161.454L143.019 161.507C142.04 161.568 141.053 161.605 140.057 161.616C139.061 161.626 138.073 161.611 137.093 161.571Z" fill="url(#paint1_linear_105_453)" style="mix-blend-mode:overlay"/>
</g>
<g filter="url(#filter2_bi_105_453)">
<path fillRule="evenodd" clipRule="evenodd" d="M234.093 98.5714L141.533 99.5847L141.53 99.0906C139.573 99.3939 137.565 99.5623 135.519 99.5847C114.584 99.8141 97.5222 84.6783 97.4098 65.7781C97.2975 46.8779 114.177 31.3704 135.112 31.141C137.541 31.1144 139.917 31.2946 142.221 31.6635C147.088 14.3512 167.732 1.17978 192.539 0.90807C217.317 0.636683 238.095 13.3232 243.198 30.4951C264.377 32.7242 280.695 46.7579 280.797 63.9213C280.897 80.7661 265.344 94.9389 244.773 98.0048L244.776 98.4544L240.019 98.5065C239.04 98.568 238.053 98.6046 237.057 98.6155C236.061 98.6264 235.073 98.6115 234.093 98.5714Z" fill="url(#paint2_linear_105_453)" style="mix-blend-mode:overlay"/>
</g>
<defs>
<filter id="filter0_i_105_453" x="60" y="7" width="165" height="176" filterUnits="userSpaceOnUse" colorInterpolationFilters="sRGB">
<feFlood floodOpacity="0" result="BackgroundImageFix"/>
<feBlend mode="normal" in="SourceGraphic" in2="BackgroundImageFix" result="shape"/>
<feColorMatrix in="SourceAlpha" type="matrix" values="0 0 0 0 0 0 0 0 0 0 0 0 0 0 0 0 0 0 127 0" result="hardAlpha"/>
<feOffset dy="20"/>
<feGaussianBlur stdDeviation="32.5"/>
<feComposite in2="hardAlpha" operator="arithmetic" k2="-1" k3="1"/>
<feColorMatrix type="matrix" values="0 0 0 0 0.980392 0 0 0 0 0.423529 0 0 0 0 0.129412 0 0 0 1 0"/>
<feBlend mode="overlay" in2="shape" result="effect1_innerShadow_105_453"/>
</filter>
<filter id="filter1_bi_105_453" x="-19.5907" y="43.9038" width="223.388" height="138.683" filterUnits="userSpaceOnUse" colorInterpolationFilters="sRGB">
<feFlood floodOpacity="0" result="BackgroundImageFix"/>
<feGaussianBlur in="BackgroundImageFix" stdDeviation="10"/>
<feComposite in2="SourceAlpha" operator="in" result="effect1_backgroundBlur_105_453"/>
<feBlend mode="normal" in="SourceGraphic" in2="effect1_backgroundBlur_105_453" result="shape"/>
<feColorMatrix in="SourceAlpha" type="matrix" values="0 0 0 0 0 0 0 0 0 0 0 0 0 0 0 0 0 0 127 0" result="hardAlpha"/>
<feOffset dy="12"/>
<feGaussianBlur stdDeviation="15"/>
<feComposite in2="hardAlpha" operator="arithmetic" k2="-1" k3="1"/>
<feColorMatrix type="matrix" values="0 0 0 0 1 0 0 0 0 1 0 0 0 0 1 0 0 0 1 0"/>
<feBlend mode="normal" in2="shape" result="effect2_innerShadow_105_453"/>
</filter>
<filter id="filter2_bi_105_453" x="77.4093" y="-19.0962" width="223.388" height="138.683" filterUnits="userSpaceOnUse" colorInterpolationFilters="sRGB">
<feFlood floodOpacity="0" result="BackgroundImageFix"/>
<feGaussianBlur in="BackgroundImageFix" stdDeviation="10"/>
<feComposite in2="SourceAlpha" operator="in" result="effect1_backgroundBlur_105_453"/>
<feBlend mode="normal" in="SourceGraphic" in2="effect1_backgroundBlur_105_453" result="shape"/>
<feColorMatrix in="SourceAlpha" type="matrix" values="0 0 0 0 0 0 0 0 0 0 0 0 0 0 0 0 0 0 127 0" result="hardAlpha"/>
<feOffset dy="12"/>
<feGaussianBlur stdDeviation="15"/>
<feComposite in2="hardAlpha" operator="arithmetic" k2="-1" k3="1"/>
<feColorMatrix type="matrix" values="0 0 0 0 1 0 0 0 0 1 0 0 0 0 1 0 0 0 1 0"/>
<feBlend mode="normal" in2="shape" result="effect2_innerShadow_105_453"/>
</filter>
<linearGradient id="paint0_linear_105_453" x1="142.5" y1="7" x2="142.5" y2="163" gradientUnits="userSpaceOnUse">
<stop stopColor="#D19113"/>
<stop offset="1" stopColor="#FFD358" stopOpacity="0.2"/>
</linearGradient>
<linearGradient id="paint1_linear_105_453" x1="91.6591" y1="63.9447" x2="92.5877" y2="162.13" gradientUnits="userSpaceOnUse">
<stop stopColor="white" stopOpacity="0.5"/>
<stop offset="1" stopColor="#8699AD"/>
</linearGradient>
<linearGradient id="paint2_linear_105_453" x1="188.659" y1="0.944686" x2="189.588" y2="99.1303" gradientUnits="userSpaceOnUse">
<stop stopColor="white" stopOpacity="0.5"/>
<stop offset="1" stopColor="#8699AD"/>
</linearGradient>
</defs>
</svg>
