<svg width="211" height="230" viewBox="0 0 211 230" fill="none" xmlns="http://www.w3.org/2000/svg">
	<g filter="url(#filter0_bi_105_220)">
		<path fillRule="evenodd" clipRule="evenodd" d="M146.093 98.5714L53.533 99.5847L53.5301 99.0906C51.5732 99.3939 49.5654 99.5623 47.5189 99.5847C26.5842 99.8141 9.52215 84.6783 9.40983 65.7781C9.29751 46.8779 26.1774 31.3704 47.1122 31.141C49.5408 31.1144 51.9173 31.2946 54.2213 31.6635C59.0879 14.3512 79.732 1.17978 104.539 0.90807C129.317 0.636683 150.095 13.3232 155.198 30.4951C176.377 32.7242 192.695 46.7579 192.797 63.9213C192.897 80.7661 177.344 94.9389 156.773 98.0048L156.776 98.4544L152.019 98.5065C151.04 98.568 150.053 98.6046 149.057 98.6155C148.061 98.6264 147.073 98.6115 146.093 98.5714Z" fill="url(#paint0_linear_105_220)" style="mix-blend-mode:overlay" />
	</g>
	<g filter="url(#filter1_d_105_220)">
		<path fillRule="evenodd" clipRule="evenodd" d="M96.2838 76.0279C93.9019 76.4909 92.3464 78.7971 92.8093 81.1789L98.5505 110.715C99.0135 113.096 101.32 114.652 103.702 114.189C106.083 113.726 107.639 111.42 107.176 109.038L101.435 79.5023C100.972 77.1204 98.6656 75.5649 96.2838 76.0279ZM52.0815 90.3941C51.6185 88.0122 53.1741 85.706 55.5559 85.243C57.9378 84.78 60.244 86.3356 60.707 88.7174L66.4481 118.253C66.9111 120.635 65.3556 122.941 62.9737 123.404C60.5919 123.867 58.2857 122.312 57.8227 119.93L52.0815 90.3941ZM76.2314 111.02C75.7684 108.638 77.3239 106.332 79.7058 105.869C82.0876 105.406 84.3939 106.961 84.8568 109.343L90.598 138.879C91.061 141.261 89.5054 143.567 87.1236 144.03C84.7417 144.493 82.4355 142.937 81.9725 140.555L76.2314 111.02Z" fill="url(#paint1_linear_105_220)" />
	</g>
	<g filter="url(#filter2_d_105_220)">
		<path fillRule="evenodd" clipRule="evenodd" d="M137.284 67.8383C134.902 68.3013 133.346 70.6075 133.809 72.9893L139.55 102.525C140.013 104.907 142.32 106.462 144.702 105.999C147.083 105.536 148.639 103.23 148.176 100.848L142.435 71.3127C141.972 68.9309 139.666 67.3753 137.284 67.8383ZM93.0815 82.2045C92.6185 79.8226 94.1741 77.5164 96.5559 77.0534C98.9378 76.5905 101.244 78.146 101.707 80.5279L107.448 110.064C107.911 112.445 106.356 114.752 103.974 115.215C101.592 115.678 99.2857 114.122 98.8227 111.74L93.0815 82.2045ZM117.231 102.83C116.768 100.448 118.324 98.1421 120.706 97.6791C123.088 97.2162 125.394 98.7717 125.857 101.154L131.598 130.689C132.061 133.071 130.505 135.377 128.124 135.84C125.742 136.303 123.435 134.748 122.973 132.366L117.231 102.83Z" fill="url(#paint2_linear_105_220)" />
	</g>
	<g filter="url(#filter3_d_105_220)">
		<path fillRule="evenodd" clipRule="evenodd" d="M161.659 87.7613C159.277 88.2243 157.721 90.5305 158.184 92.9123L163.926 122.448C164.389 124.83 166.695 126.385 169.077 125.922C171.458 125.459 173.014 123.153 172.551 120.771L166.81 91.2357C166.347 88.8538 164.041 87.2983 161.659 87.7613ZM117.457 102.127C116.994 99.7456 118.549 97.4394 120.931 96.9764C123.313 96.5134 125.619 98.069 126.082 100.451L131.823 129.987C132.286 132.368 130.731 134.675 128.349 135.138C125.967 135.601 123.661 134.045 123.198 131.663L117.457 102.127ZM141.606 122.753C141.143 120.371 142.699 118.065 145.081 117.602C147.463 117.139 149.769 118.695 150.232 121.077L155.973 150.612C156.436 152.994 154.88 155.3 152.499 155.763C150.117 156.226 147.811 154.671 147.348 152.289L141.606 122.753Z" fill="url(#paint3_linear_105_220)" />
	</g>
	<g filter="url(#filter4_d_105_220)">
		<path fillRule="evenodd" clipRule="evenodd" d="M121.284 96.8383C118.902 97.3013 117.346 99.6075 117.809 101.989L123.55 131.525C124.013 133.907 126.32 135.462 128.702 134.999C131.083 134.536 132.639 132.23 132.176 129.848L126.435 100.313C125.972 97.9309 123.666 96.3753 121.284 96.8383ZM77.0815 111.204C76.6185 108.823 78.1741 106.516 80.5559 106.053C82.9378 105.59 85.244 107.146 85.707 109.528L91.4481 139.064C91.9111 141.445 90.3556 143.752 87.9737 144.215C85.5919 144.678 83.2857 143.122 82.8227 140.74L77.0815 111.204ZM101.231 131.83C100.768 129.448 102.324 127.142 104.706 126.679C107.088 126.216 109.394 127.772 109.857 130.154L115.598 159.689C116.061 162.071 114.505 164.377 112.124 164.84C109.742 165.303 107.435 163.748 106.973 161.366L101.231 131.83Z" fill="url(#paint4_linear_105_220)" />
	</g>
	<g filter="url(#filter5_bi_105_220)">
		<path fillRule="evenodd" clipRule="evenodd" d="M146.093 98.5714L53.533 99.5847L53.5301 99.0906C51.5732 99.3939 49.5654 99.5623 47.5189 99.5847C26.5842 99.8141 9.52215 84.6783 9.40983 65.7781C9.29751 46.8779 26.1774 31.3704 47.1122 31.141C49.5408 31.1144 51.9173 31.2946 54.2213 31.6635C59.0879 14.3512 79.732 1.17978 104.539 0.90807C129.317 0.636683 150.095 13.3232 155.198 30.4951C176.377 32.7242 192.695 46.7579 192.797 63.9213C192.897 80.7661 177.344 94.9389 156.773 98.0048L156.776 98.4544L152.019 98.5065C151.04 98.568 150.053 98.6046 149.057 98.6155C148.061 98.6264 147.073 98.6115 146.093 98.5714Z" fill="url(#paint5_linear_105_220)" style="mix-blend-mode:overlay" />
	</g>
	<defs>
		<filter id="filter0_bi_105_220" x="-10.5907" y="-19.0962" width="223.388" height="138.683" filterUnits="userSpaceOnUse" colorInterpolationFilters="sRGB">
			<feFlood floodOpacity="0" result="BackgroundImageFix" />
			<feGaussianBlur in="BackgroundImageFix" stdDeviation="10" />
			<feComposite in2="SourceAlpha" operator="in" result="effect1_backgroundBlur_105_220" />
			<feBlend mode="normal" in="SourceGraphic" in2="effect1_backgroundBlur_105_220" result="shape" />
			<feColorMatrix in="SourceAlpha" type="matrix" values="0 0 0 0 0 0 0 0 0 0 0 0 0 0 0 0 0 0 127 0" result="hardAlpha" />
			<feOffset dy="12" />
			<feGaussianBlur stdDeviation="15" />
			<feComposite in2="hardAlpha" operator="arithmetic" k2="-1" k3="1" />
			<feColorMatrix type="matrix" values="0 0 0 0 1 0 0 0 0 1 0 0 0 0 1 0 0 0 1 0" />
			<feBlend mode="normal" in2="shape" result="effect2_innerShadow_105_220" />
		</filter>
		<filter id="filter1_d_105_220" x="-3.05176e-05" y="50.9464" width="145.258" height="158.165" filterUnits="userSpaceOnUse" colorInterpolationFilters="sRGB">
			<feFlood floodOpacity="0" result="BackgroundImageFix" />
			<feColorMatrix in="SourceAlpha" type="matrix" values="0 0 0 0 0 0 0 0 0 0 0 0 0 0 0 0 0 0 127 0" result="hardAlpha" />
			<feOffset dx="-7" dy="20" />
			<feGaussianBlur stdDeviation="22.5" />
			<feColorMatrix type="matrix" values="0 0 0 0 0.596078 0 0 0 0 0.678431 0 0 0 0 0.768627 0 0 0 1 0" />
			<feBlend mode="normal" in2="BackgroundImageFix" result="effect1_dropShadow_105_220" />
			<feBlend mode="normal" in="SourceGraphic" in2="effect1_dropShadow_105_220" result="shape" />
		</filter>
		<filter id="filter2_d_105_220" x="41" y="42.7568" width="145.258" height="158.165" filterUnits="userSpaceOnUse" colorInterpolationFilters="sRGB">
			<feFlood floodOpacity="0" result="BackgroundImageFix" />
			<feColorMatrix in="SourceAlpha" type="matrix" values="0 0 0 0 0 0 0 0 0 0 0 0 0 0 0 0 0 0 127 0" result="hardAlpha" />
			<feOffset dx="-7" dy="20" />
			<feGaussianBlur stdDeviation="22.5" />
			<feColorMatrix type="matrix" values="0 0 0 0 0.596078 0 0 0 0 0.678431 0 0 0 0 0.768627 0 0 0 1 0" />
			<feBlend mode="normal" in2="BackgroundImageFix" result="effect1_dropShadow_105_220" />
			<feBlend mode="normal" in="SourceGraphic" in2="effect1_dropShadow_105_220" result="shape" />
		</filter>
		<filter id="filter3_d_105_220" x="65.375" y="62.6797" width="145.258" height="158.165" filterUnits="userSpaceOnUse" colorInterpolationFilters="sRGB">
			<feFlood floodOpacity="0" result="BackgroundImageFix" />
			<feColorMatrix in="SourceAlpha" type="matrix" values="0 0 0 0 0 0 0 0 0 0 0 0 0 0 0 0 0 0 127 0" result="hardAlpha" />
			<feOffset dx="-7" dy="20" />
			<feGaussianBlur stdDeviation="22.5" />
			<feColorMatrix type="matrix" values="0 0 0 0 0.596078 0 0 0 0 0.678431 0 0 0 0 0.768627 0 0 0 1 0" />
			<feBlend mode="normal" in2="BackgroundImageFix" result="effect1_dropShadow_105_220" />
			<feBlend mode="normal" in="SourceGraphic" in2="effect1_dropShadow_105_220" result="shape" />
		</filter>
		<filter id="filter4_d_105_220" x="25" y="71.7568" width="145.258" height="158.165" filterUnits="userSpaceOnUse" colorInterpolationFilters="sRGB">
			<feFlood floodOpacity="0" result="BackgroundImageFix" />
			<feColorMatrix in="SourceAlpha" type="matrix" values="0 0 0 0 0 0 0 0 0 0 0 0 0 0 0 0 0 0 127 0" result="hardAlpha" />
			<feOffset dx="-7" dy="20" />
			<feGaussianBlur stdDeviation="22.5" />
			<feColorMatrix type="matrix" values="0 0 0 0 0.596078 0 0 0 0 0.678431 0 0 0 0 0.768627 0 0 0 1 0" />
			<feBlend mode="normal" in2="BackgroundImageFix" result="effect1_dropShadow_105_220" />
			<feBlend mode="normal" in="SourceGraphic" in2="effect1_dropShadow_105_220" result="shape" />
		</filter>
		<filter id="filter5_bi_105_220" x="-10.5907" y="-19.0962" width="223.388" height="138.683" filterUnits="userSpaceOnUse" colorInterpolationFilters="sRGB">
			<feFlood floodOpacity="0" result="BackgroundImageFix" />
			<feGaussianBlur in="BackgroundImageFix" stdDeviation="10" />
			<feComposite in2="SourceAlpha" operator="in" result="effect1_backgroundBlur_105_220" />
			<feBlend mode="normal" in="SourceGraphic" in2="effect1_backgroundBlur_105_220" result="shape" />
			<feColorMatrix in="SourceAlpha" type="matrix" values="0 0 0 0 0 0 0 0 0 0 0 0 0 0 0 0 0 0 127 0" result="hardAlpha" />
			<feOffset dy="12" />
			<feGaussianBlur stdDeviation="15" />
			<feComposite in2="hardAlpha" operator="arithmetic" k2="-1" k3="1" />
			<feColorMatrix type="matrix" values="0 0 0 0 1 0 0 0 0 1 0 0 0 0 1 0 0 0 1 0" />
			<feBlend mode="normal" in2="shape" result="effect2_innerShadow_105_220" />
		</filter>
		<linearGradient id="paint0_linear_105_220" x1="100.659" y1="0.944686" x2="101.588" y2="99.1303" gradientUnits="userSpaceOnUse">
			<stop stopColor="white" stopOpacity="0.5" />
			<stop offset="1" stopColor="#8699AD" />
		</linearGradient>
		<linearGradient id="paint1_linear_105_220" x1="75.7983" y1="80.0098" x2="88.2017" y2="143.82" gradientUnits="userSpaceOnUse">
			<stop stopColor="white" stopOpacity="0" />
			<stop offset="1" stopColor="#00B3EC" />
		</linearGradient>
		<linearGradient id="paint2_linear_105_220" x1="116.798" y1="71.8203" x2="129.202" y2="135.631" gradientUnits="userSpaceOnUse">
			<stop stopColor="white" stopOpacity="0" />
			<stop offset="1" stopColor="#00B3EC" />
		</linearGradient>
		<linearGradient id="paint3_linear_105_220" x1="141.173" y1="91.7432" x2="153.577" y2="155.554" gradientUnits="userSpaceOnUse">
			<stop stopColor="white" stopOpacity="0" />
			<stop offset="1" stopColor="#00B3EC" />
		</linearGradient>
		<linearGradient id="paint4_linear_105_220" x1="100.798" y1="100.82" x2="113.202" y2="164.631" gradientUnits="userSpaceOnUse">
			<stop stopColor="white" stopOpacity="0" />
			<stop offset="1" stopColor="#00B3EC" />
		</linearGradient>
		<linearGradient id="paint5_linear_105_220" x1="100.659" y1="0.944686" x2="101.588" y2="99.1303" gradientUnits="userSpaceOnUse">
			<stop stopColor="white" stopOpacity="0.5" />
			<stop offset="1" stopColor="#8699AD" />
		</linearGradient>
	</defs>
</svg>
