<svg width="37" height="25" viewBox="0 0 37 25" fill="none" xmlns="http://www.w3.org/2000/svg">
<g style="mix-blend-mode:multiply" opacity="0.4" filter="url(#filter0_f_108_522)">
<path d="M33.9555 19.4371C34.1266 20.0072 33.789 20.6068 33.2028 20.7734C32.8511 20.8741 32.5151 21.0141 32.203 21.19C30.3845 22.2884 28.0153 22.2207 26.1847 21.1888C25.5017 20.8069 24.7113 20.6042 23.9044 20.6041C23.0975 20.6039 22.307 20.8063 21.6238 21.1878C20.7143 21.7018 19.6589 21.9749 18.581 21.9751C17.5032 21.9752 16.4477 21.7025 15.538 21.1888C14.8544 20.8084 14.0642 20.6066 13.2576 20.6064C12.4511 20.6062 11.6608 20.8077 10.977 21.1878C10.0812 21.7165 9.03005 21.999 7.95472 22C6.87939 22.001 5.82755 21.7204 4.93055 21.1933C4.6171 21.0161 4.27955 20.875 3.92604 20.7734C3.33653 20.6055 2.99929 20.006 3.17085 19.4358C3.33451 18.8813 3.95197 18.5338 4.54212 18.7034C5.06534 18.8615 5.56304 19.0796 6.02265 19.3522C6.5939 19.6828 7.26063 19.8593 7.94228 19.8604C8.62394 19.8615 9.2914 19.6872 9.86404 19.3586C10.8784 18.8005 12.0478 18.5049 13.2408 18.505C14.4338 18.505 15.6032 18.8008 16.6175 19.3589C17.1935 19.6874 17.8636 19.862 18.548 19.862C19.2324 19.862 19.9025 19.6874 20.4785 19.3589C21.4929 18.8008 22.6623 18.5051 23.8554 18.505C25.0485 18.505 26.218 18.8006 27.2324 19.3586C27.8038 19.6864 28.4696 19.8606 29.1497 19.8602C29.8298 19.8598 30.4953 19.6849 31.0662 19.3565C31.509 19.0935 31.9871 18.8808 32.4894 18.7236L32.5824 18.7046C33.173 18.5335 33.7919 18.8815 33.9555 19.4371Z" fill="#0440AD"/>
<path d="M3.79846 13.0212C3.21112 12.8545 2.8732 12.255 3.04457 11.6848C3.18713 11.0908 3.89061 10.7026 4.50984 10.9405C5.0444 11.1004 5.553 11.3221 6.02263 11.5997C6.59383 11.9302 7.26047 12.1067 7.94204 12.1079C8.62362 12.1091 9.29101 11.9349 9.86368 11.6065C10.8781 11.0482 12.0476 10.7525 13.2408 10.7525C14.434 10.7526 15.6035 11.0484 16.6178 11.6068C17.1938 11.935 17.8637 12.1095 18.548 12.1095C19.2322 12.1095 19.9021 11.935 20.4781 11.6068C21.4925 11.0484 22.662 10.7526 23.8552 10.7526C25.0484 10.7525 26.218 11.0482 27.2324 11.6065C27.8039 11.9341 28.4696 12.1081 29.1497 12.1077C29.8298 12.1073 30.4953 11.9324 31.0662 11.6041C31.529 11.329 32.0305 11.1091 32.5577 10.95C32.6215 10.9196 32.6934 10.9052 32.7657 10.9086C33.6316 10.9104 34.1319 11.8327 33.7361 12.5044C33.6706 12.6255 33.5783 12.7337 33.4647 12.8225C33.3511 12.9112 33.2186 12.9787 33.075 13.021C32.7234 13.1218 32.3876 13.2618 32.0754 13.4375C30.2569 14.5359 27.888 14.4683 26.0572 13.4366C25.3743 13.0546 24.5838 12.8518 23.7769 12.8516C22.97 12.8514 22.1794 13.0538 21.4962 13.4354C20.5868 13.9495 19.5313 14.2226 18.4535 14.2229C17.3757 14.2231 16.3201 13.9503 15.4104 13.4366C14.7269 13.0561 13.9367 12.8542 13.1301 12.854C12.3236 12.8538 11.5333 13.0552 10.8495 13.4354C9.9538 13.9641 8.90264 14.2466 7.82733 14.2476C6.75202 14.2485 5.70024 13.9679 4.80331 13.4408C4.4897 13.2637 4.15204 13.1227 3.79846 13.0212Z" fill="#0440AD"/>
<path d="M3.89194 5.27707C3.30677 5.102 2.96891 4.5027 3.14024 3.93245C3.30333 3.37748 3.92028 3.02957 4.51051 3.19876C5.03362 3.35674 5.53124 3.57481 5.99074 3.84742C6.56194 4.17793 7.22863 4.3544 7.91023 4.35553C8.59183 4.35667 9.2592 4.18241 9.83179 3.8538C10.8462 3.29562 12.0158 2.99994 13.2089 3C14.4021 3.00006 15.5715 3.29586 16.5859 3.85414C17.1619 4.18238 17.8319 4.35685 18.5162 4.35685C19.2004 4.35685 19.8703 4.18238 20.4464 3.85414C21.4607 3.29587 22.6303 3.00008 23.8234 3.00003C25.0165 2.99998 26.186 3.29566 27.2005 3.85384C27.7719 4.18164 28.4377 4.35579 29.1178 4.35535C29.7979 4.35492 30.4635 4.17993 31.0344 3.85141C31.4961 3.57707 31.9963 3.35762 32.5221 3.19866C33.1118 3.03028 33.7283 3.37772 33.8917 3.93205C34.0631 4.50243 33.7252 5.10206 33.139 5.26842C32.7873 5.3692 32.4514 5.50925 32.1394 5.68521C30.3209 6.7834 27.9516 6.716 26.121 5.684C25.4381 5.30219 24.6477 5.09952 23.8408 5.09929C23.034 5.09907 22.2434 5.30132 21.5602 5.68275C20.6508 6.1969 19.5953 6.4701 18.5175 6.47032C17.4396 6.47055 16.384 6.1978 15.4743 5.68403C14.7907 5.3037 14.0006 5.1019 13.1941 5.10167C12.3876 5.10144 11.5973 5.3028 10.9135 5.68275C10.0177 6.21146 8.96656 6.49396 7.89122 6.495C6.81588 6.49604 5.76401 6.21557 4.86694 5.68859C4.56224 5.51629 4.23475 5.37807 3.89194 5.27707Z" fill="#0440AD"/>
</g>
<path d="M32.9555 18.4371C33.1266 19.0072 32.789 19.6068 32.2026 19.7734C31.851 19.8742 31.5151 20.0141 31.203 20.19C29.3844 21.2884 27.0153 21.2207 25.1846 20.1888C24.5017 19.8069 23.7113 19.6042 22.9044 19.6041C22.0975 19.6039 21.307 19.8063 20.6238 20.1878C19.7143 20.7018 18.6588 20.9749 17.581 20.9751C16.5032 20.9753 15.4476 20.7025 14.5379 20.1888C13.8543 19.8084 13.0641 19.6066 12.2576 19.6064C11.4511 19.6062 10.6607 19.8077 9.97697 20.1878C9.08119 20.7165 8.03002 20.999 6.95469 21C5.87936 21.001 4.82755 20.7204 3.93056 20.1934C3.61709 20.0161 3.27955 19.875 2.92604 19.7734C2.33649 19.6055 1.99925 19.006 2.17081 18.4358C2.33447 17.8813 2.95193 17.5338 3.54209 17.7034C4.06531 17.8614 4.56302 18.0796 5.02261 18.3522C5.59387 18.6828 6.26059 18.8593 6.94225 18.8604C7.62392 18.8615 8.29137 18.6872 8.86401 18.3586C9.87838 17.8005 11.0478 17.5049 12.2408 17.505C13.4338 17.505 14.6032 17.8008 15.6175 18.3589C16.1935 18.6874 16.8636 18.862 17.548 18.862C18.2324 18.862 18.9025 18.6874 19.4785 18.3589C20.4929 17.8008 21.6623 17.5051 22.8554 17.505C24.0485 17.505 25.2179 17.8006 26.2324 18.3586C26.8038 18.6864 27.4696 18.8606 28.1497 18.8602C28.8298 18.8598 29.4953 18.6849 30.0663 18.3565C30.509 18.0935 30.9871 17.8808 31.4894 17.7236L31.5824 17.7046C32.1731 17.5335 32.792 17.8815 32.9555 18.4371Z" fill="white" fillOpacity="0.94902"/>
<path d="M2.79845 12.0212C2.21111 11.8545 1.87322 11.255 2.04456 10.6848C2.18716 10.0908 2.89063 9.70257 3.50987 9.94048C4.04441 10.1004 4.55301 10.3221 5.02262 10.5997C5.59382 10.9302 6.26046 11.1067 6.94204 11.1079C7.62362 11.1091 8.29101 10.9349 8.86368 10.6065C9.87809 10.0482 11.0476 9.75247 12.2408 9.75253C13.434 9.75259 14.6035 10.0484 15.6178 10.6068C16.1938 10.935 16.8637 11.1095 17.548 11.1095C18.2323 11.1095 18.9022 10.935 19.4782 10.6068C20.4926 10.0484 21.6621 9.75261 22.8553 9.75256C24.0485 9.7525 25.218 10.0482 26.2324 10.6065C26.8039 10.9341 27.4697 11.1081 28.1498 11.1077C28.8298 11.1073 29.4953 10.9324 30.0663 10.6041C30.5291 10.329 31.0305 10.1091 31.5578 9.95004C31.6215 9.91958 31.6934 9.90525 31.7657 9.90862C32.6316 9.91038 33.132 10.8327 32.7361 11.5044C32.6706 11.6255 32.5783 11.7337 32.4647 11.8224C32.3512 11.9112 32.2186 11.9787 32.0751 12.0209C31.7234 12.1217 31.3874 12.2617 31.0752 12.4374C29.2567 13.5358 26.8878 13.4682 25.057 12.4365C24.3741 12.0545 23.5836 11.8517 22.7767 11.8515C21.9698 11.8513 21.1792 12.0537 20.496 12.4353C19.5866 12.9494 18.5311 13.2225 17.4533 13.2228C16.3755 13.223 15.3199 12.9502 14.4102 12.4365C13.7267 12.056 12.9365 11.8541 12.1299 11.8539C11.3234 11.8537 10.533 12.0552 9.8493 12.4353C8.95357 12.964 7.90244 13.2465 6.82714 13.2475C5.75183 13.2484 4.7 12.9678 3.80308 12.4407C3.48952 12.2637 3.15195 12.1227 2.79845 12.0212Z" fill="white" fillOpacity="0.94902"/>
<path d="M2.89191 4.27707C2.30677 4.102 1.96891 3.5027 2.14024 2.93245C2.30333 2.37748 2.92025 2.02957 3.51051 2.19876C4.03363 2.35674 4.53124 2.5748 4.99075 2.84742C5.56194 3.17793 6.2286 3.3544 6.9102 3.35554C7.5918 3.35667 8.25918 3.18241 8.83177 2.8538C9.84622 2.29562 11.0158 1.99994 12.2089 2C13.4021 2.00006 14.5715 2.29586 15.5859 2.85414C16.162 3.18238 16.8319 3.35685 17.5162 3.35685C18.2005 3.35685 18.8704 3.18238 19.4464 2.85414C20.4608 2.29587 21.6302 2.00008 22.8234 2.00003C24.0165 1.99997 25.1861 2.29566 26.2005 2.85384C26.7719 3.18164 27.4377 3.35579 28.1178 3.35536C28.798 3.35492 29.4635 3.17993 30.0344 2.8514C30.4961 2.57706 30.9963 2.35762 31.5221 2.19866C32.1118 2.03028 32.7284 2.37772 32.8918 2.93205C33.0631 3.50243 32.7252 4.10206 32.1388 4.26842C31.7871 4.36919 31.4511 4.50924 31.139 4.68521C29.3206 5.7834 26.9513 5.716 25.1207 4.684C24.4377 4.30219 23.6473 4.09952 22.8404 4.0993C22.0336 4.09907 21.243 4.30132 20.5598 4.68275C19.6504 5.1969 18.5949 5.4701 17.5171 5.47032C16.4393 5.47055 15.3836 5.1978 14.474 4.68403C13.7904 4.30369 13.0002 4.10189 12.1937 4.10166C11.3872 4.10143 10.5969 4.30279 9.9131 4.68275C9.01732 5.21146 7.96615 5.49397 6.89082 5.49501C5.81548 5.49605 4.7636 5.21557 3.86654 4.68859C3.56194 4.51631 3.2346 4.37809 2.89191 4.27707Z" fill="white" fillOpacity="0.94902"/>
<defs>
<filter id="filter0_f_108_522" x="0" y="0" width="37" height="25" filterUnits="userSpaceOnUse" colorInterpolationFilters="sRGB">
<feFlood floodOpacity="0" result="BackgroundImageFix"/>
<feBlend mode="normal" in="SourceGraphic" in2="BackgroundImageFix" result="shape"/>
<feGaussianBlur stdDeviation="1.5" result="effect1_foregroundBlur_108_522"/>
</filter>
</defs>
</svg>
