<svg width="26" height="46" viewBox="0 0 26 46" fill="none" xmlns="http://www.w3.org/2000/svg">
<g style="mix-blend-mode:multiply" opacity="0.4" filter="url(#filter0_f_108_516)">
<path d="M12.729 29.1807C14.3257 29.1807 15.6249 30.6026 15.6249 32.3504C15.4622 36.5564 9.99572 36.5555 9.83343 32.3504C9.83343 30.6026 11.1327 29.1807 12.729 29.1807Z" fill="#0440AD"/>
<path d="M20.0285 25.2501C25.3912 31.6815 21.5833 42.8844 12.778 43C3.83987 42.7132 0.0677897 31.5881 5.56269 25.0856V10.8445C5.56269 6.51904 8.77764 3 12.729 3C16.6804 3 19.8957 6.51904 19.8957 10.8445V25.0878L20.0285 25.2501ZM18.0201 37.9939C20.8371 34.8019 20.757 29.6961 17.8417 26.6118C17.6134 26.3593 17.487 26.031 17.4869 25.6906V10.8445C17.4869 7.95232 15.3375 5.59892 12.6948 5.59892C10.0521 5.59892 7.90296 7.95232 7.90296 10.8445V25.5432C7.90265 25.8794 7.77878 26.2038 7.5549 26.4546C2.71093 31.0377 5.41885 40.4797 12.4577 40.5495C13.8948 40.5491 15.2888 40.0911 16.4788 39.2419C16.4788 39.2419 17.8028 38.2399 18.02 37.9939" fill="#0440AD"/>
</g>
<path d="M11.7291 28.1807C13.3257 28.1807 14.6249 29.6026 14.6249 31.3504C14.4622 35.5564 8.9957 35.5555 8.83345 31.3504C8.83345 29.6026 10.1327 28.1807 11.7291 28.1807Z" fill="white" fillOpacity="0.94902"/>
<path d="M19.0285 24.2501C24.3912 30.6815 20.5832 41.8844 11.778 42C2.83986 41.7132 -0.932206 30.5881 4.5627 24.0856V9.8445C4.5627 5.51904 7.77764 2 11.729 2C15.6805 2 18.8957 5.51904 18.8957 9.8445V24.0878L19.0285 24.2501ZM17.02 36.9939C19.8371 33.8019 19.757 28.6961 16.8417 25.6118C16.6134 25.3593 16.487 25.031 16.4869 24.6906V9.84454C16.4869 6.95232 14.3375 4.59892 11.6948 4.59892C9.05207 4.59892 6.90293 6.95232 6.90293 9.84454V24.5432C6.9026 24.8794 6.77873 25.2038 6.55487 25.4546C1.71086 30.0377 4.41877 39.4797 11.4577 39.5495C12.8947 39.5491 14.2888 39.0911 15.4788 38.2419C15.4788 38.2419 16.3777 37.7536 17.0199 36.9939" fill="white" fillOpacity="0.94902"/>
<defs>
<filter id="filter0_f_108_516" x="0" y="0" width="25.4968" height="46" filterUnits="userSpaceOnUse" colorInterpolationFilters="sRGB">
<feFlood floodOpacity="0" result="BackgroundImageFix"/>
<feBlend mode="normal" in="SourceGraphic" in2="BackgroundImageFix" result="shape"/>
<feGaussianBlur stdDeviation="1.5" result="effect1_foregroundBlur_108_516"/>
</filter>
</defs>
</svg>
